<mxfile host="Electron" modified="2024-03-12T05:45:52.429Z" agent="Mozilla/5.0 (Windows NT 10.0; Win64; x64) AppleWebKit/537.36 (KHTML, like Gecko) draw.io/22.1.21 Chrome/120.0.6099.109 Electron/28.1.0 Safari/537.36" etag="LMGXQ5aVz88isPS3D7u0" version="22.1.21" type="device">
  <diagram id="C5RBs43oDa-KdzZeNtuy" name="Page-1">
    <mxGraphModel dx="1050" dy="629" grid="1" gridSize="10" guides="1" tooltips="1" connect="1" arrows="1" fold="1" page="1" pageScale="1" pageWidth="827" pageHeight="1169" math="0" shadow="0">
      <root>
        <mxCell id="WIyWlLk6GJQsqaUBKTNV-0" />
        <mxCell id="WIyWlLk6GJQsqaUBKTNV-1" parent="WIyWlLk6GJQsqaUBKTNV-0" />
        <mxCell id="_cgMj6vdXRqFCgHBEguM-1" value="Luồng gia nhập" style="swimlane;whiteSpace=wrap;html=1;" parent="WIyWlLk6GJQsqaUBKTNV-1" vertex="1">
          <mxGeometry x="50" y="60" width="990" height="680" as="geometry" />
        </mxCell>
        <mxCell id="_cgMj6vdXRqFCgHBEguM-0" value="" style="endArrow=none;dashed=1;html=1;rounded=0;" parent="_cgMj6vdXRqFCgHBEguM-1" edge="1">
          <mxGeometry width="50" height="50" relative="1" as="geometry">
            <mxPoint x="190" y="680" as="sourcePoint" />
            <mxPoint x="190" y="20" as="targetPoint" />
            <Array as="points">
              <mxPoint x="190" y="290" />
            </Array>
          </mxGeometry>
        </mxCell>
        <mxCell id="_cgMj6vdXRqFCgHBEguM-3" value="" style="endArrow=none;dashed=1;html=1;rounded=0;" parent="_cgMj6vdXRqFCgHBEguM-1" edge="1">
          <mxGeometry width="50" height="50" relative="1" as="geometry">
            <mxPoint x="420" y="680" as="sourcePoint" />
            <mxPoint x="420" y="20" as="targetPoint" />
          </mxGeometry>
        </mxCell>
        <mxCell id="_cgMj6vdXRqFCgHBEguM-5" value="" style="endArrow=none;html=1;rounded=0;" parent="_cgMj6vdXRqFCgHBEguM-1" edge="1">
          <mxGeometry width="50" height="50" relative="1" as="geometry">
            <mxPoint y="60" as="sourcePoint" />
            <mxPoint x="990" y="60" as="targetPoint" />
          </mxGeometry>
        </mxCell>
        <mxCell id="_cgMj6vdXRqFCgHBEguM-7" value="Device" style="text;html=1;strokeColor=none;fillColor=none;align=center;verticalAlign=middle;whiteSpace=wrap;rounded=0;" parent="_cgMj6vdXRqFCgHBEguM-1" vertex="1">
          <mxGeometry x="274" y="30" width="60" height="30" as="geometry" />
        </mxCell>
        <mxCell id="_cgMj6vdXRqFCgHBEguM-8" value="Server + App" style="text;html=1;strokeColor=none;fillColor=none;align=center;verticalAlign=middle;whiteSpace=wrap;rounded=0;" parent="_cgMj6vdXRqFCgHBEguM-1" vertex="1">
          <mxGeometry x="50" y="30" width="90" height="30" as="geometry" />
        </mxCell>
        <mxCell id="_cgMj6vdXRqFCgHBEguM-13" style="edgeStyle=orthogonalEdgeStyle;rounded=0;orthogonalLoop=1;jettySize=auto;html=1;exitX=1;exitY=0.5;exitDx=0;exitDy=0;entryX=0;entryY=0.5;entryDx=0;entryDy=0;" parent="_cgMj6vdXRqFCgHBEguM-1" source="_cgMj6vdXRqFCgHBEguM-9" target="_cgMj6vdXRqFCgHBEguM-12" edge="1">
          <mxGeometry relative="1" as="geometry">
            <Array as="points">
              <mxPoint x="400" y="300" />
              <mxPoint x="400" y="140" />
            </Array>
          </mxGeometry>
        </mxCell>
        <mxCell id="_cgMj6vdXRqFCgHBEguM-9" value="Gửi Model ID cho HC" style="rounded=0;whiteSpace=wrap;html=1;" parent="_cgMj6vdXRqFCgHBEguM-1" vertex="1">
          <mxGeometry x="244" y="270" width="120" height="60" as="geometry" />
        </mxCell>
        <mxCell id="_cgMj6vdXRqFCgHBEguM-10" value="" style="endArrow=none;dashed=1;html=1;rounded=0;" parent="_cgMj6vdXRqFCgHBEguM-1" edge="1">
          <mxGeometry width="50" height="50" relative="1" as="geometry">
            <mxPoint x="710" y="680" as="sourcePoint" />
            <mxPoint x="710" y="60" as="targetPoint" />
            <Array as="points" />
          </mxGeometry>
        </mxCell>
        <mxCell id="_cgMj6vdXRqFCgHBEguM-11" value="HC" style="text;html=1;strokeColor=none;fillColor=none;align=center;verticalAlign=middle;whiteSpace=wrap;rounded=0;" parent="_cgMj6vdXRqFCgHBEguM-1" vertex="1">
          <mxGeometry x="680" y="30" width="60" height="30" as="geometry" />
        </mxCell>
        <mxCell id="n9zipan53aRFgn1Fbban-7" style="edgeStyle=orthogonalEdgeStyle;rounded=0;orthogonalLoop=1;jettySize=auto;html=1;exitX=0.5;exitY=1;exitDx=0;exitDy=0;entryX=0.5;entryY=0;entryDx=0;entryDy=0;" parent="_cgMj6vdXRqFCgHBEguM-1" source="_cgMj6vdXRqFCgHBEguM-12" target="n9zipan53aRFgn1Fbban-6" edge="1">
          <mxGeometry relative="1" as="geometry" />
        </mxCell>
        <mxCell id="_cgMj6vdXRqFCgHBEguM-12" value="Coordinator sinh ra device type dựa vào model id" style="rounded=0;whiteSpace=wrap;html=1;" parent="_cgMj6vdXRqFCgHBEguM-1" vertex="1">
          <mxGeometry x="492.5" y="110" width="120" height="60" as="geometry" />
        </mxCell>
        <mxCell id="n9zipan53aRFgn1Fbban-1" style="edgeStyle=orthogonalEdgeStyle;rounded=0;orthogonalLoop=1;jettySize=auto;html=1;exitX=0.5;exitY=1;exitDx=0;exitDy=0;entryX=0.5;entryY=0;entryDx=0;entryDy=0;" parent="_cgMj6vdXRqFCgHBEguM-1" source="n9zipan53aRFgn1Fbban-0" target="_cgMj6vdXRqFCgHBEguM-9" edge="1">
          <mxGeometry relative="1" as="geometry" />
        </mxCell>
        <mxCell id="n9zipan53aRFgn1Fbban-0" value="Gia nhập mạng thành công" style="rounded=0;whiteSpace=wrap;html=1;" parent="_cgMj6vdXRqFCgHBEguM-1" vertex="1">
          <mxGeometry x="244" y="180" width="120" height="60" as="geometry" />
        </mxCell>
        <mxCell id="n9zipan53aRFgn1Fbban-3" value="" style="endArrow=none;html=1;rounded=0;" parent="_cgMj6vdXRqFCgHBEguM-1" edge="1">
          <mxGeometry width="50" height="50" relative="1" as="geometry">
            <mxPoint y="90" as="sourcePoint" />
            <mxPoint x="990" y="90" as="targetPoint" />
          </mxGeometry>
        </mxCell>
        <mxCell id="n9zipan53aRFgn1Fbban-4" value="Coordinator" style="text;html=1;strokeColor=none;fillColor=none;align=center;verticalAlign=middle;whiteSpace=wrap;rounded=0;" parent="_cgMj6vdXRqFCgHBEguM-1" vertex="1">
          <mxGeometry x="530" y="60" width="60" height="30" as="geometry" />
        </mxCell>
        <mxCell id="n9zipan53aRFgn1Fbban-5" value="ESP32" style="text;html=1;strokeColor=none;fillColor=none;align=center;verticalAlign=middle;whiteSpace=wrap;rounded=0;" parent="_cgMj6vdXRqFCgHBEguM-1" vertex="1">
          <mxGeometry x="820" y="60" width="60" height="30" as="geometry" />
        </mxCell>
        <mxCell id="n9zipan53aRFgn1Fbban-9" style="edgeStyle=orthogonalEdgeStyle;rounded=0;orthogonalLoop=1;jettySize=auto;html=1;exitX=0.5;exitY=1;exitDx=0;exitDy=0;entryX=0.5;entryY=0;entryDx=0;entryDy=0;" parent="_cgMj6vdXRqFCgHBEguM-1" source="n9zipan53aRFgn1Fbban-6" target="n9zipan53aRFgn1Fbban-8" edge="1">
          <mxGeometry relative="1" as="geometry" />
        </mxCell>
        <mxCell id="n9zipan53aRFgn1Fbban-6" value="Coordinator thêm thông tin thiết bị vào danh sách bao gồm:&lt;br&gt;- Node Id&lt;br&gt;- Device type&lt;br&gt;- Connection state (mặc định vừa gia nhập là online)&lt;br&gt;- Last communicate time" style="rounded=0;whiteSpace=wrap;html=1;align=left;" parent="_cgMj6vdXRqFCgHBEguM-1" vertex="1">
          <mxGeometry x="465" y="220" width="175" height="120" as="geometry" />
        </mxCell>
        <mxCell id="n9zipan53aRFgn1Fbban-12" style="edgeStyle=orthogonalEdgeStyle;rounded=0;orthogonalLoop=1;jettySize=auto;html=1;exitX=1;exitY=0.5;exitDx=0;exitDy=0;entryX=0;entryY=0.5;entryDx=0;entryDy=0;" parent="_cgMj6vdXRqFCgHBEguM-1" source="n9zipan53aRFgn1Fbban-8" target="n9zipan53aRFgn1Fbban-10" edge="1">
          <mxGeometry relative="1" as="geometry" />
        </mxCell>
        <mxCell id="n9zipan53aRFgn1Fbban-8" value="Gửi thông báo thiết bị gia nhập mạng và thông tin đi kèm bao gồm: Node id, device type" style="rounded=0;whiteSpace=wrap;html=1;" parent="_cgMj6vdXRqFCgHBEguM-1" vertex="1">
          <mxGeometry x="462.5" y="380" width="180" height="80" as="geometry" />
        </mxCell>
        <mxCell id="n9zipan53aRFgn1Fbban-13" style="edgeStyle=orthogonalEdgeStyle;rounded=0;orthogonalLoop=1;jettySize=auto;html=1;exitX=0.5;exitY=1;exitDx=0;exitDy=0;entryX=1;entryY=0.5;entryDx=0;entryDy=0;" parent="_cgMj6vdXRqFCgHBEguM-1" source="n9zipan53aRFgn1Fbban-10" target="n9zipan53aRFgn1Fbban-11" edge="1">
          <mxGeometry relative="1" as="geometry" />
        </mxCell>
        <mxCell id="n9zipan53aRFgn1Fbban-10" value="ESP32 thêm thông tin vừa nhận vào danh sách, sau đó cấp phát cho các virtual pin dựa vào device type" style="rounded=0;whiteSpace=wrap;html=1;" parent="_cgMj6vdXRqFCgHBEguM-1" vertex="1">
          <mxGeometry x="790" y="375" width="170" height="90" as="geometry" />
        </mxCell>
        <mxCell id="n9zipan53aRFgn1Fbban-17" style="edgeStyle=orthogonalEdgeStyle;rounded=0;orthogonalLoop=1;jettySize=auto;html=1;exitX=0.5;exitY=1;exitDx=0;exitDy=0;entryX=0.5;entryY=0;entryDx=0;entryDy=0;" parent="_cgMj6vdXRqFCgHBEguM-1" source="n9zipan53aRFgn1Fbban-11" target="n9zipan53aRFgn1Fbban-16" edge="1">
          <mxGeometry relative="1" as="geometry" />
        </mxCell>
        <mxCell id="n9zipan53aRFgn1Fbban-11" value="App nháy led liên tục ứng với virtual pin vừa được cấp" style="rounded=0;whiteSpace=wrap;html=1;" parent="_cgMj6vdXRqFCgHBEguM-1" vertex="1">
          <mxGeometry x="40" y="495" width="120" height="60" as="geometry" />
        </mxCell>
        <mxCell id="n9zipan53aRFgn1Fbban-15" style="edgeStyle=orthogonalEdgeStyle;rounded=0;orthogonalLoop=1;jettySize=auto;html=1;exitX=0.5;exitY=1;exitDx=0;exitDy=0;entryX=0.5;entryY=0;entryDx=0;entryDy=0;" parent="_cgMj6vdXRqFCgHBEguM-1" source="n9zipan53aRFgn1Fbban-14" target="n9zipan53aRFgn1Fbban-0" edge="1">
          <mxGeometry relative="1" as="geometry" />
        </mxCell>
        <mxCell id="n9zipan53aRFgn1Fbban-14" value="BEGIN" style="ellipse;whiteSpace=wrap;html=1;" parent="_cgMj6vdXRqFCgHBEguM-1" vertex="1">
          <mxGeometry x="244" y="100" width="120" height="50" as="geometry" />
        </mxCell>
        <mxCell id="n9zipan53aRFgn1Fbban-16" value="END" style="ellipse;whiteSpace=wrap;html=1;" parent="_cgMj6vdXRqFCgHBEguM-1" vertex="1">
          <mxGeometry x="42.5" y="600" width="115" height="60" as="geometry" />
        </mxCell>
      </root>
    </mxGraphModel>
  </diagram>
</mxfile>
